<?xml version="1.0" encoding="utf-8"?>
<!-- Generator: Adobe Illustrator 24.3.0, SVG Export Plug-In . SVG Version: 6.00 Build 0)  -->
<svg version="1.1" id="Слой_1" xmlns="http://www.w3.org/2000/svg" xmlns:xlink="http://www.w3.org/1999/xlink" x="0px" y="0px"
	 viewBox="0 0 196 429" style="enable-background:new 0 0 196 429;" xml:space="preserve">
<style type="text/css">
	.st0{fill-rule:evenodd;clip-rule:evenodd;fill:url(#SVGID_1_);}
</style>
<linearGradient id="SVGID_1_" gradientUnits="userSpaceOnUse" x1="203.5269" y1="203.7025" x2="49.9232" y2="215.5375" gradientTransform="matrix(1 0 0 -1 0 430)">
	<stop  offset="0" style="stop-color:#C8DBFF"/>
	<stop  offset="1" style="stop-color:#FFFFFF;stop-opacity:0"/>
</linearGradient>
<path class="st0" d="M72.5,1.8c0.3-0.2,0.3-0.6,0.1-0.8c-0.2-0.3-0.6-0.3-0.9-0.1c-0.3,0.2-0.3,0.6-0.1,0.8C71.8,2,72.2,2,72.5,1.8z
	 M67.7,8.8c0.5,0.6,0.4,1.5-0.2,2c-0.6,0.5-1.6,0.4-2.1-0.2c-0.5-0.6-0.4-1.5,0.2-2C66.3,8.2,67.2,8.2,67.7,8.8z M85.4,9.5
	c0.3-0.2,0.3-0.6,0.1-0.8c-0.2-0.3-0.6-0.3-0.9-0.1s-0.3,0.6-0.1,0.8C84.7,9.6,85.1,9.7,85.4,9.5z M80.1,16.2c0.5,0.6,0.3,1.5-0.3,2
	c-0.7,0.5-1.6,0.3-2.1-0.3c-0.5-0.6-0.3-1.5,0.3-2C78.8,15.4,79.7,15.5,80.1,16.2z M74.3,25.9c0.6-0.4,0.7-1.2,0.3-1.7
	c-0.4-0.5-1.2-0.7-1.8-0.3s-0.7,1.2-0.3,1.7C72.9,26.2,73.7,26.3,74.3,25.9z M68.4,32.3c0.4,0.5,0.2,1.1-0.3,1.5
	c-0.5,0.3-1.2,0.2-1.5-0.2c-0.4-0.5-0.2-1.1,0.3-1.5C67.4,31.7,68.1,31.8,68.4,32.3z M62.5,41.6c0.4-0.3,0.5-0.9,0.2-1.3
	c-0.3-0.4-0.9-0.5-1.3-0.2c-0.4,0.3-0.5,0.9-0.2,1.3C61.5,41.8,62.1,41.9,62.5,41.6z M56.5,48.4c0.3,0.4,0.2,0.8-0.2,1.1
	c-0.4,0.3-0.9,0.2-1.1-0.2c-0.3-0.4-0.2-0.8,0.2-1.1C55.7,48,56.3,48,56.5,48.4z M50.4,56.4c0.2,0.3,0.2,0.8-0.2,1
	c-0.3,0.2-0.8,0.2-1-0.2s-0.2-0.8,0.2-1S50.2,56.1,50.4,56.4z M24.5,76.4c0.2,0.2,0.2,0.6-0.1,0.7c-0.2,0.2-0.6,0.2-0.8-0.1
	c-0.2-0.2-0.2-0.6,0.1-0.7C24,76.1,24.3,76.1,24.5,76.4z M29.9,68.7c0.3-0.2,0.3-0.6,0.1-0.8c-0.2-0.2-0.6-0.3-0.8-0.1
	c-0.3,0.2-0.3,0.6-0.1,0.8S29.7,68.9,29.9,68.7z M35.5,59.5c0.2,0.3,0.2,0.7-0.1,0.9c-0.3,0.2-0.7,0.2-0.9-0.1
	c-0.2-0.3-0.2-0.7,0.1-0.9C34.9,59.2,35.3,59.2,35.5,59.5z M40.9,52c0.3-0.3,0.4-0.7,0.1-1c-0.3-0.3-0.7-0.3-1-0.1
	c-0.3,0.3-0.4,0.7-0.1,1C40.1,52.3,40.6,52.3,40.9,52z M46.6,42.6c0.3,0.3,0.2,0.8-0.1,1.1s-0.9,0.2-1.2-0.1
	c-0.3-0.3-0.2-0.8,0.1-1.1S46.3,42.2,46.6,42.6z M52,35.4c0.4-0.3,0.5-0.9,0.1-1.3c-0.3-0.4-1-0.4-1.4-0.1c-0.4,0.3-0.5,0.9-0.1,1.3
	C51,35.7,51.6,35.7,52,35.4z M57.2,25.7c0.4,0.4,0.3,1.1-0.2,1.5c-0.5,0.4-1.2,0.3-1.6-0.1c-0.4-0.4-0.3-1.1,0.2-1.5
	C56.1,25.2,56.8,25.3,57.2,25.7z M62.6,19c0.5-0.4,0.6-1.2,0.2-1.7c-0.4-0.5-1.3-0.6-1.8-0.1c-0.5,0.4-0.6,1.2-0.2,1.7
	S62.1,19.4,62.6,19z M123.4,38.6c0.2,0.3,0,0.7-0.3,0.9c-0.3,0.2-0.8,0-0.9-0.3c-0.2-0.3,0-0.7,0.3-0.9
	C122.8,38.2,123.2,38.3,123.4,38.6z M131.9,48.5c0.4-0.2,0.5-0.6,0.3-1c-0.2-0.4-0.6-0.5-1-0.3c-0.4,0.2-0.5,0.6-0.3,1
	C131.1,48.5,131.5,48.7,131.9,48.5z M140.6,56.9c0.2,0.4,0,0.8-0.3,1c-0.4,0.2-0.8,0-1-0.3c-0.2-0.4,0-0.8,0.3-1
	C139.9,56.4,140.4,56.5,140.6,56.9z M148.1,67.7c0.4-0.2,0.5-0.7,0.3-1c-0.2-0.4-0.7-0.5-1.1-0.3c-0.4,0.2-0.5,0.7-0.3,1
	C147.2,67.8,147.7,67.9,148.1,67.7z M155.7,76.8c0.2,0.4,0,0.9-0.4,1.1c-0.4,0.2-0.9,0-1.1-0.4c-0.2-0.4,0-0.9,0.4-1.1
	S155.5,76.4,155.7,76.8z M162.1,88.5c0.4-0.2,0.6-0.7,0.4-1.1s-0.8-0.6-1.2-0.4c-0.4,0.2-0.6,0.7-0.4,1.1
	C161.1,88.5,161.6,88.7,162.1,88.5z M168.6,98.2c0.2,0.4,0,0.9-0.4,1.2s-1,0.1-1.2-0.4c-0.2-0.4,0-0.9,0.4-1.2
	C167.8,97.6,168.4,97.8,168.6,98.2z M173.7,110.6c0.5-0.2,0.7-0.8,0.4-1.3c-0.2-0.5-0.8-0.6-1.3-0.4c-0.5,0.2-0.7,0.8-0.4,1.3
	C172.7,110.6,173.3,110.8,173.7,110.6z M178.6,122c0.5-0.2,0.7-0.8,0.4-1.3c-0.2-0.5-0.8-0.7-1.3-0.4c-0.5,0.2-0.7,0.8-0.4,1.3
	C177.6,122.1,178.2,122.3,178.6,122z M182.9,133.7c0.5-0.3,0.7-0.9,0.5-1.4c-0.3-0.5-0.9-0.7-1.4-0.4c-0.5,0.3-0.7,0.9-0.5,1.4
	C181.8,133.8,182.4,134,182.9,133.7z M187.1,144.2c0.3,0.5,0.1,1.2-0.5,1.4c-0.5,0.3-1.2,0.1-1.5-0.4c-0.3-0.5-0.1-1.2,0.5-1.4
	C186.1,143.5,186.8,143.7,187.1,144.2z M189.6,157.7c0.6-0.3,0.8-0.9,0.5-1.5c-0.3-0.5-1-0.8-1.5-0.5c-0.6,0.3-0.8,0.9-0.5,1.5
	C188.4,157.7,189,157.9,189.6,157.7z M192.4,168.3c0.3,0.6,0.1,1.3-0.5,1.5s-1.3,0.1-1.6-0.5c-0.3-0.6-0.1-1.3,0.5-1.5
	C191.4,167.5,192.1,167.8,192.4,168.3z M193.6,182.2c0.6-0.3,0.8-1,0.5-1.6c-0.3-0.6-1-0.8-1.6-0.5s-0.8,1-0.5,1.6
	C192.3,182.2,193,182.5,193.6,182.2z M195.1,192.9c0.3,0.6,0.1,1.3-0.5,1.6c-0.6,0.3-1.4,0.1-1.7-0.5c-0.3-0.6-0.1-1.3,0.5-1.6
	C194.1,192.1,194.8,192.3,195.1,192.9z M194.9,206.9c0.6-0.3,0.9-1.1,0.6-1.7c-0.3-0.6-1.1-0.8-1.8-0.5c-0.6,0.3-0.9,1.1-0.6,1.7
	C193.5,207,194.3,207.2,194.9,206.9z M195.2,217.6c0.3,0.6,0.1,1.4-0.6,1.7s-1.4,0.1-1.8-0.5c-0.3-0.6-0.1-1.4,0.6-1.7
	C194.1,216.8,194.9,217,195.2,217.6z M193.6,231.7c0.7-0.3,0.9-1.1,0.6-1.8c-0.3-0.6-1.2-0.9-1.8-0.6c-0.7,0.3-0.9,1.1-0.6,1.8
	C192.1,231.8,192.9,232,193.6,231.7z M192.5,242.2c0.3,0.6,0.1,1.4-0.6,1.7c-0.7,0.3-1.5,0.1-1.8-0.6s-0.1-1.4,0.6-1.7
	C191.3,241.3,192.1,241.6,192.5,242.2z M189.5,256.1c0.6-0.3,0.9-1.1,0.6-1.7c-0.3-0.6-1.1-0.8-1.8-0.5s-0.9,1.1-0.6,1.7
	C188.1,256.2,188.8,256.4,189.5,256.1z M186.5,268.2c0.7-0.3,0.9-1.1,0.6-1.7c-0.3-0.6-1.1-0.9-1.8-0.6c-0.7,0.3-0.9,1.1-0.6,1.7
	C185,268.3,185.8,268.5,186.5,268.2z M183.4,278.4c0.3,0.6,0.1,1.3-0.6,1.7c-0.6,0.3-1.4,0.1-1.7-0.5c-0.3-0.6-0.1-1.3,0.6-1.7
	C182.3,277.5,183,277.8,183.4,278.4z M178.5,291.8c0.7-0.3,0.9-1.1,0.6-1.8c-0.3-0.6-1.2-0.9-1.8-0.6s-0.9,1.1-0.6,1.8
	C177,291.9,177.9,292.1,178.5,291.8z M174.2,301.5c0.3,0.6,0.1,1.4-0.6,1.7c-0.7,0.3-1.5,0.1-1.8-0.6c-0.3-0.6-0.1-1.4,0.6-1.7
	C173,300.6,173.8,300.8,174.2,301.5z M168,314.3c0.6-0.3,0.9-1.1,0.6-1.7c-0.3-0.6-1.1-0.8-1.7-0.5c-0.6,0.3-0.9,1.1-0.6,1.7
	C166.6,314.4,167.4,314.6,168,314.3z M162.4,323.6c0.3,0.6,0.1,1.3-0.6,1.7c-0.6,0.3-1.4,0.1-1.7-0.5c-0.3-0.6-0.1-1.3,0.6-1.7
	C161.3,322.8,162.1,323,162.4,323.6z M155.1,335.8c0.6-0.3,0.9-1.1,0.6-1.7c-0.3-0.6-1.1-0.8-1.7-0.5c-0.6,0.3-0.9,1.1-0.6,1.7
	C153.7,335.9,154.5,336.1,155.1,335.8z M147.8,346c0.6-0.3,0.8-1,0.5-1.5c-0.3-0.6-1-0.8-1.6-0.5c-0.6,0.3-0.8,1-0.5,1.5
	C146.5,346,147.2,346.3,147.8,346z M139.9,355.8c0.6-0.3,0.8-1,0.5-1.6c-0.3-0.6-1-0.8-1.6-0.5c-0.6,0.3-0.8,1-0.5,1.6
	C138.6,355.9,139.4,356.1,139.9,355.8z M132.1,363.7c0.3,0.6,0.1,1.2-0.5,1.5c-0.6,0.3-1.3,0.1-1.6-0.5c-0.3-0.6-0.1-1.2,0.5-1.5
	C131.1,363,131.8,363.2,132.1,363.7z M122.7,374.2c0.5-0.3,0.8-0.9,0.5-1.4c-0.3-0.5-0.9-0.7-1.5-0.4c-0.5,0.3-0.8,0.9-0.5,1.4
	C121.5,374.3,122.1,374.5,122.7,374.2z M113.8,381.3c0.3,0.5,0.1,1.2-0.5,1.4c-0.5,0.3-1.2,0.1-1.5-0.4c-0.3-0.5-0.1-1.2,0.5-1.4
	C112.9,380.6,113.6,380.8,113.8,381.3z M103.5,390.8c0.5-0.3,0.7-0.9,0.5-1.4c-0.3-0.5-0.9-0.7-1.4-0.4c-0.5,0.3-0.7,0.9-0.5,1.4
	C102.4,390.8,103,391,103.5,390.8z M93.3,398.3c0.5-0.2,0.7-0.8,0.4-1.3c-0.3-0.5-0.9-0.7-1.4-0.4c-0.5,0.2-0.7,0.8-0.4,1.3
	C92.2,398.4,92.8,398.6,93.3,398.3z M83.1,404.1c0.2,0.5,0.1,1-0.4,1.3c-0.5,0.2-1.1,0.1-1.3-0.4c-0.2-0.5-0.1-1,0.4-1.3
	C82.3,403.4,82.9,403.6,83.1,404.1z M72,410.6c0.2,0.4,0,0.9-0.4,1.1c-0.4,0.2-0.9,0-1.1-0.4c-0.2-0.4,0-0.9,0.4-1.1
	C71.3,410.1,71.8,410.2,72,410.6z M60.6,416.6c0.2,0.4,0,0.8-0.3,1c-0.4,0.2-0.8,0-1-0.3c-0.2-0.4,0-0.8,0.3-1
	C60,416.1,60.5,416.3,60.6,416.6z M48.7,423c0.4-0.2,0.5-0.6,0.3-1c-0.2-0.4-0.7-0.5-1-0.3c-0.4,0.2-0.5,0.6-0.3,1
	C47.9,423,48.3,423.2,48.7,423z M36.4,428.7c0.4-0.2,0.5-0.6,0.3-1s-0.7-0.5-1-0.3c-0.4,0.2-0.5,0.6-0.3,1
	C35.5,428.7,36,428.9,36.4,428.7z M102.1,21.2c0.3-0.2,0.4-0.5,0.2-0.8c-0.2-0.3-0.5-0.4-0.8-0.2c-0.3,0.2-0.4,0.5-0.2,0.8
	C101.4,21.3,101.8,21.4,102.1,21.2z M96.1,27.3c0.4,0.7,0.1,1.5-0.6,1.9c-0.7,0.4-1.6,0.2-2-0.5c-0.4-0.7-0.1-1.5,0.6-1.9
	C94.8,26.4,95.7,26.6,96.1,27.3z M113.7,31c0.3-0.2,0.4-0.5,0.3-0.8c-0.2-0.3-0.5-0.4-0.8-0.3c-0.3,0.2-0.4,0.5-0.3,0.8
	C113,31,113.4,31.1,113.7,31z M106.8,38.7c0.7-0.4,1-1.2,0.7-1.9c-0.4-0.7-1.3-1-2-0.6c-0.7,0.4-1,1.2-0.7,1.9
	C105.2,38.8,106.1,39.1,106.8,38.7z M100.2,45.5c0.6-0.3,0.9-1.1,0.6-1.7c-0.3-0.6-1.1-0.8-1.7-0.5s-0.9,1.1-0.6,1.7
	C98.8,45.6,99.5,45.8,100.2,45.5z M93.3,50.9c0.3,0.5,0.1,1.2-0.5,1.4c-0.5,0.3-1.2,0.1-1.5-0.4c-0.3-0.5-0.1-1.2,0.5-1.4
	C92.4,50.2,93,50.4,93.3,50.9z M150.1,162.3c0.4,0.8,0.1,1.8-0.8,2.2c-0.9,0.4-1.9,0.1-2.3-0.7c-0.4-0.8-0.1-1.8,0.8-2.2
	C148.7,161.1,149.7,161.4,150.1,162.3z M152.6,174.4c0.5,0.9,0.1,1.9-0.8,2.4c-0.9,0.4-2,0.1-2.4-0.8c-0.5-0.9-0.1-1.9,0.8-2.4
	C151,173.2,152.1,173.5,152.6,174.4z M153.4,189c0.9-0.5,1.3-1.5,0.8-2.4c-0.5-0.9-1.6-1.2-2.5-0.8c-0.9,0.5-1.3,1.5-0.8,2.4
	C151.4,189.1,152.5,189.5,153.4,189z M155.1,198.9c0.5,0.9,0.1,2-0.8,2.5c-0.9,0.5-2.1,0.1-2.6-0.8c-0.5-0.9-0.1-2,0.8-2.5
	C153.4,197.7,154.6,198,155.1,198.9z M154.2,213.8c1-0.5,1.3-1.6,0.9-2.5c-0.5-0.9-1.7-1.3-2.6-0.8c-1,0.5-1.3,1.6-0.9,2.5
	C152.1,214,153.3,214.3,154.2,213.8z M154.3,223.6c0.5,0.9,0.1,2.1-0.9,2.6c-1,0.5-2.2,0.1-2.7-0.8c-0.5-0.9-0.1-2.1,0.9-2.6
	C152.6,222.3,153.8,222.7,154.3,223.6z M151.8,238.5c1-0.5,1.4-1.6,0.9-2.6c-0.5-0.9-1.7-1.3-2.7-0.8c-1,0.5-1.4,1.6-0.9,2.6
	S150.8,239,151.8,238.5z M150.2,248.1c0.5,1,0.1,2.1-0.9,2.6c-1,0.5-2.2,0.1-2.7-0.8c-0.5-1-0.1-2.1,0.9-2.6
	C148.5,246.8,149.7,247.1,150.2,248.1z M146.1,262.7c1-0.5,1.4-1.7,0.9-2.6s-1.7-1.3-2.7-0.8c-1,0.5-1.4,1.7-0.9,2.6
	C143.9,262.8,145.2,263.2,146.1,262.7z M143,271.9c0.5,1,0.1,2.1-0.9,2.6c-1,0.5-2.2,0.1-2.7-0.8c-0.5-1-0.1-2.1,0.9-2.6
	C141.3,270.5,142.5,270.9,143,271.9z M137.4,286c1-0.5,1.4-1.6,0.9-2.6c-0.5-0.9-1.7-1.3-2.7-0.8c-1,0.5-1.4,1.6-0.9,2.6
	C135.2,286.1,136.4,286.5,137.4,286z M132.8,294.6c0.5,0.9,0.1,2.1-0.9,2.6c-1,0.5-2.2,0.1-2.7-0.8c-0.5-0.9-0.1-2.1,0.9-2.6
	C131.1,293.3,132.3,293.7,132.8,294.6z M125.7,308c1-0.5,1.3-1.6,0.9-2.5c-0.5-0.9-1.6-1.3-2.6-0.8c-0.9,0.5-1.3,1.6-0.9,2.5
	C123.5,308.1,124.7,308.5,125.7,308z M119.6,316c0.5,0.9,0.1,2-0.8,2.5c-0.9,0.5-2.1,0.1-2.6-0.8c-0.5-0.9-0.1-2,0.8-2.5
	C118,314.8,119.1,315.1,119.6,316z M111.2,328.5c0.9-0.5,1.3-1.5,0.8-2.4c-0.5-0.9-1.6-1.2-2.5-0.8c-0.9,0.5-1.3,1.5-0.8,2.4
	C109.1,328.6,110.2,328.9,111.2,328.5z M103.7,335.6c0.5,0.9,0.1,1.9-0.8,2.4c-0.9,0.4-2,0.1-2.4-0.8c-0.5-0.9-0.1-1.9,0.8-2.4
	C102.2,334.4,103.3,334.8,103.7,335.6z M94.1,347c0.9-0.4,1.2-1.4,0.8-2.2c-0.4-0.8-1.5-1.1-2.3-0.7c-0.9,0.4-1.2,1.4-0.8,2.2
	C92.2,347.1,93.2,347.4,94.1,347z M85.4,353.3c0.4,0.8,0.1,1.8-0.7,2.2c-0.8,0.4-1.8,0.1-2.3-0.7c-0.4-0.8-0.1-1.8,0.7-2.2
	C84,352.2,85,352.5,85.4,353.3z M74.7,363.3c0.8-0.4,1.1-1.3,0.7-2.1s-1.4-1.1-2.1-0.7c-0.8,0.4-1.1,1.3-0.7,2.1
	C73,363.4,73.9,363.7,74.7,363.3z M65,368.6c0.4,0.7,0.1,1.6-0.7,2c-0.8,0.4-1.7,0.1-2.1-0.6c-0.4-0.7-0.1-1.6,0.7-2
	C63.7,367.6,64.6,367.9,65,368.6z M53.4,377.2c0.7-0.3,1-1.2,0.6-1.9c-0.4-0.7-1.2-1-1.9-0.6s-1,1.2-0.6,1.9
	C51.8,377.2,52.7,377.5,53.4,377.2z M42.7,381.3c0.3,0.6,0.1,1.4-0.6,1.8c-0.7,0.3-1.5,0.1-1.8-0.6c-0.3-0.6-0.1-1.4,0.6-1.8
	C41.5,380.4,42.3,380.7,42.7,381.3z M30.4,388.3c0.6-0.3,0.9-1.1,0.6-1.7c-0.3-0.6-1.1-0.8-1.7-0.5c-0.6,0.3-0.9,1.1-0.6,1.7
	C29,388.4,29.8,388.6,30.4,388.3z M101.5,60.9c0.6-0.3,0.8-1,0.5-1.5c-0.3-0.6-1-0.8-1.6-0.5c-0.6,0.3-0.8,1-0.5,1.5
	C100.2,61,100.9,61.2,101.5,60.9z M110.9,68.3c0.3,0.6,0.1,1.3-0.6,1.7c-0.6,0.3-1.4,0.1-1.7-0.5c-0.3-0.6-0.1-1.3,0.6-1.7
	C109.8,67.5,110.6,67.7,110.9,68.3z M118.6,79.5c0.7-0.3,0.9-1.1,0.6-1.8c-0.3-0.6-1.2-0.9-1.8-0.6s-0.9,1.1-0.6,1.8
	C117.1,79.6,118,79.8,118.6,79.5z M127,87.6c0.4,0.7,0.1,1.6-0.7,1.9c-0.7,0.4-1.6,0.1-2-0.6c-0.4-0.7-0.1-1.6,0.7-1.9
	C125.7,86.7,126.6,86.9,127,87.6z M133.3,99.9c0.8-0.4,1.1-1.3,0.7-2c-0.4-0.7-1.3-1-2.1-0.6c-0.8,0.4-1.1,1.3-0.7,2
	C131.6,100,132.6,100.3,133.3,99.9z M140.4,108.7c0.4,0.8,0.1,1.7-0.7,2.1c-0.8,0.4-1.8,0.1-2.2-0.7c-0.4-0.8-0.1-1.7,0.7-2.1
	C139,107.6,140,107.9,140.4,108.7z M145.4,121.9c0.9-0.4,1.2-1.4,0.8-2.2c-0.4-0.8-1.5-1.1-2.3-0.7c-0.9,0.4-1.2,1.4-0.8,2.2
	C143.5,122,144.5,122.4,145.4,121.9z M151.1,131.1c0.5,0.9,0.1,1.9-0.8,2.4c-0.9,0.4-2,0.1-2.4-0.8c-0.5-0.9-0.1-1.9,0.8-2.4
	C149.6,129.9,150.7,130.2,151.1,131.1z M154.6,145.1c0.9-0.5,1.3-1.6,0.8-2.5c-0.5-0.9-1.6-1.2-2.6-0.8c-0.9,0.5-1.3,1.6-0.8,2.5
	C152.5,145.2,153.7,145.6,154.6,145.1z M159,154.5c0.5,0.9,0.1,2.1-0.9,2.6c-1,0.5-2.2,0.1-2.7-0.8c-0.5-0.9-0.1-2.1,0.9-2.6
	C157.3,153.2,158.5,153.6,159,154.5z M160.9,169.2c1-0.5,1.4-1.7,0.9-2.7c-0.5-1-1.7-1.3-2.8-0.8c-1,0.5-1.4,1.7-0.9,2.7
	C158.7,169.4,159.9,169.7,160.9,169.2z M163.9,178.8c0.5,1,0.1,2.2-0.9,2.7c-1,0.5-2.3,0.1-2.8-0.9c-0.5-1-0.1-2.2,0.9-2.7
	C162.1,177.4,163.3,177.8,163.9,178.8z M164.2,193.9c1.1-0.5,1.5-1.8,0.9-2.8c-0.5-1-1.9-1.4-2.9-0.9c-1.1,0.5-1.5,1.8-0.9,2.8
	C161.8,194,163.1,194.4,164.2,193.9z M165.6,203.4c0.6,1,0.1,2.3-1,2.9c-1.1,0.5-2.4,0.1-3-0.9c-0.6-1-0.1-2.3,1-2.9
	C163.8,202,165.1,202.4,165.6,203.4z M164.4,218.7c1.1-0.6,1.6-1.9,1-2.9c-0.6-1.1-1.9-1.5-3.1-0.9s-1.6,1.9-1,2.9
	C161.9,218.8,163.3,219.3,164.4,218.7z M164.3,228.1c0.6,1.1,0.1,2.4-1,3s-2.5,0.1-3.1-0.9c-0.6-1.1-0.1-2.4,1-3
	C162.4,226.6,163.8,227,164.3,228.1z M161.5,243.3c1.1-0.6,1.6-1.9,1-3c-0.6-1.1-2-1.5-3.1-1c-1.1,0.6-1.6,1.9-1,3
	C158.9,243.5,160.3,243.9,161.5,243.3z M159.9,252.5c0.6,1.1,0.1,2.4-1,3c-1.1,0.6-2.5,0.1-3.1-1c-0.6-1.1-0.1-2.4,1-3
	C157.9,251,159.3,251.4,159.9,252.5z M155.6,267.5c1.2-0.6,1.6-1.9,1-3.1c-0.6-1.1-2-1.6-3.2-1c-1.2,0.6-1.6,1.9-1,3.1
	C153,267.6,154.4,268.1,155.6,267.5z M152.5,276.2c0.6,1.1,0.1,2.4-1,3c-1.1,0.6-2.5,0.1-3.1-1c-0.6-1.1-0.1-2.4,1-3
	C150.5,274.7,151.9,275.1,152.5,276.2z M146.7,290.7c1.1-0.6,1.6-1.9,1-3c-0.6-1.1-2-1.5-3.1-1c-1.1,0.6-1.6,1.9-1,3
	C144.1,290.8,145.5,291.3,146.7,290.7z M142.2,298.9c0.6,1.1,0.1,2.4-1,3c-1.1,0.6-2.5,0.1-3.1-0.9c-0.6-1.1-0.1-2.4,1-3
	S141.6,297.8,142.2,298.9z M134.9,312.7c1.1-0.5,1.6-1.9,1-2.9s-1.9-1.5-3-0.9c-1.1,0.5-1.6,1.9-1,2.9
	C132.5,312.9,133.8,313.3,134.9,312.7z M129,320.3c0.6,1,0.1,2.3-1,2.9c-1.1,0.5-2.4,0.1-3-0.9c-0.6-1-0.1-2.3,1-2.9
	C127.1,318.9,128.5,319.3,129,320.3z M120.5,333.3c1.1-0.5,1.5-1.8,0.9-2.8c-0.5-1-1.8-1.4-2.9-0.9c-1.1,0.5-1.5,1.8-0.9,2.8
	C118.2,333.4,119.5,333.8,120.5,333.3z M113.3,340.1c0.5,1,0.1,2.2-0.9,2.7c-1,0.5-2.3,0.1-2.8-0.9c-0.5-1-0.1-2.2,0.9-2.7
	C111.6,338.8,112.8,339.2,113.3,340.1z M103.7,352c1-0.5,1.4-1.7,0.9-2.7c-0.5-1-1.7-1.3-2.8-0.8c-1,0.5-1.4,1.7-0.9,2.7
	C101.5,352.1,102.7,352.5,103.7,352z M95.3,358c0.5,0.9,0.1,2.1-0.9,2.5c-1,0.5-2.1,0.1-2.6-0.8c-0.5-0.9-0.1-2.1,0.9-2.5
	C93.6,356.7,94.8,357.1,95.3,358z M84.6,368.6c0.9-0.5,1.3-1.5,0.8-2.4c-0.5-0.9-1.6-1.2-2.5-0.8c-0.9,0.5-1.3,1.5-0.8,2.4
	C82.6,368.7,83.7,369,84.6,368.6z M75.1,373.7c0.4,0.8,0.1,1.9-0.8,2.3c-0.9,0.4-2,0.1-2.4-0.8c-0.4-0.8-0.1-1.9,0.8-2.3
	C73.6,372.6,74.7,372.9,75.1,373.7z M63.6,382.9c0.8-0.4,1.2-1.4,0.8-2.2c-0.4-0.8-1.4-1.1-2.3-0.7c-0.8,0.4-1.2,1.4-0.8,2.2
	C61.8,383,62.8,383.3,63.6,382.9z M53.2,387.1c0.4,0.8,0.1,1.7-0.7,2.1c-0.8,0.4-1.8,0.1-2.2-0.7c-0.4-0.8-0.1-1.7,0.7-2.1
	C51.8,386,52.8,386.3,53.2,387.1z M41,394.7c0.8-0.4,1.1-1.3,0.7-2c-0.4-0.7-1.3-1-2.1-0.6c-0.8,0.4-1.1,1.3-0.7,2
	C39.3,394.8,40.2,395.1,41,394.7z M29.8,397.8c0.4,0.7,0.1,1.5-0.6,1.9c-0.7,0.3-1.6,0.1-1.9-0.6c-0.4-0.7-0.1-1.5,0.6-1.9
	C28.6,396.8,29.4,397.1,29.8,397.8z M109.5,52.3c0.3,0.6,0.1,1.4-0.6,1.8c-0.7,0.3-1.5,0.1-1.8-0.6c-0.3-0.6-0.1-1.4,0.6-1.8
	C108.3,51.4,109.1,51.6,109.5,52.3z M117.7,63.1c0.7-0.4,1-1.2,0.7-1.9s-1.3-1-2-0.6c-0.7,0.4-1,1.2-0.7,1.9
	C116.1,63.2,117,63.5,117.7,63.1z M126.7,70.6c0.4,0.7,0.1,1.7-0.7,2c-0.8,0.4-1.7,0.1-2.1-0.7c-0.4-0.7-0.1-1.7,0.7-2
	C125.4,69.6,126.3,69.9,126.7,70.6z M133.8,82.6c0.8-0.4,1.2-1.4,0.7-2.2c-0.4-0.8-1.4-1.1-2.3-0.7c-0.8,0.4-1.2,1.4-0.7,2.2
	C131.9,82.7,132.9,83,133.8,82.6z M141.7,90.7c0.4,0.8,0.1,1.9-0.8,2.3s-1.9,0.1-2.4-0.7c-0.4-0.8-0.1-1.9,0.8-2.3
	C140.2,89.5,141.2,89.9,141.7,90.7z M147.4,103.7c0.9-0.5,1.3-1.5,0.8-2.4c-0.5-0.9-1.6-1.2-2.5-0.8c-0.9,0.5-1.3,1.5-0.8,2.4
	C145.3,103.9,146.5,104.2,147.4,103.7z M154.1,112.3c0.5,0.9,0.1,2.1-0.9,2.5c-1,0.5-2.1,0.1-2.6-0.8c-0.5-0.9-0.1-2.1,0.9-2.5
	C152.4,111,153.6,111.3,154.1,112.3z M158.5,126.2c1-0.5,1.4-1.7,0.9-2.7c-0.5-1-1.8-1.4-2.8-0.9c-1,0.5-1.4,1.7-0.9,2.7
	C156.2,126.4,157.4,126.7,158.5,126.2z M163.9,135.1c0.5,1,0.1,2.3-0.9,2.8c-1.1,0.5-2.4,0.1-2.9-0.9c-0.5-1-0.1-2.3,0.9-2.8
	C162.1,133.7,163.4,134.1,163.9,135.1z M166.8,149.8c1.1-0.5,1.6-1.9,1-2.9c-0.6-1.1-1.9-1.5-3-0.9c-1.1,0.5-1.6,1.9-1,2.9
	C164.3,149.9,165.7,150.3,166.8,149.8z M170.9,158.8c0.6,1.1,0.1,2.4-1,3c-1.1,0.6-2.5,0.1-3.1-1c-0.6-1.1-0.1-2.4,1-3
	S170.3,157.7,170.9,158.8z M172.3,174.1c1.2-0.6,1.7-2,1-3.1c-0.6-1.1-2.1-1.6-3.2-1c-1.2,0.6-1.7,2-1,3.1S171.1,174.7,172.3,174.1z
	 M175,183.2c0.6,1.2,0.1,2.6-1.1,3.2c-1.2,0.6-2.7,0.1-3.3-1c-0.6-1.2-0.1-2.6,1.1-3.2C172.9,181.6,174.4,182,175,183.2z
	 M174.9,198.8c1.2-0.6,1.7-2.1,1.1-3.3c-0.6-1.2-2.1-1.7-3.4-1c-1.2,0.6-1.7,2.1-1.1,3.3C172.1,198.9,173.6,199.4,174.9,198.8z
	 M176.2,207.9c0.6,1.2,0.1,2.7-1.1,3.4c-1.3,0.6-2.8,0.1-3.5-1.1c-0.6-1.2-0.1-2.7,1.1-3.4C174,206.2,175.5,206.6,176.2,207.9z
	 M174.5,223.6c1.3-0.6,1.8-2.2,1.2-3.4c-0.7-1.2-2.3-1.7-3.6-1.1c-1.3,0.6-1.8,2.2-1.2,3.4C171.6,223.8,173.2,224.3,174.5,223.6z
	 M174.4,232.5c0.7,1.3,0.1,2.8-1.2,3.5c-1.3,0.6-2.9,0.2-3.6-1.1c-0.7-1.3-0.1-2.8,1.2-3.5C172.1,230.7,173.7,231.2,174.4,232.5z
	 M171.2,248.2c1.3-0.7,1.9-2.2,1.2-3.5c-0.7-1.3-2.3-1.8-3.6-1.1c-1.3,0.7-1.9,2.2-1.2,3.5C168.2,248.4,169.9,248.9,171.2,248.2z
	 M169.6,256.8c0.7,1.3,0.1,2.8-1.2,3.5c-1.3,0.7-2.9,0.2-3.6-1.1c-0.7-1.3-0.1-2.8,1.2-3.5C167.3,255,169,255.5,169.6,256.8z
	 M165,272.3c1.3-0.7,1.9-2.2,1.2-3.5c-0.7-1.3-2.3-1.8-3.6-1.1c-1.3,0.7-1.9,2.2-1.2,3.5C162,272.4,163.7,272.9,165,272.3z
	 M162,280.5c0.7,1.3,0.1,2.8-1.2,3.5s-2.9,0.2-3.6-1.1c-0.7-1.3-0.1-2.8,1.2-3.5S161.3,279.2,162,280.5z M155.9,295.4
	c1.3-0.7,1.8-2.2,1.2-3.5c-0.7-1.3-2.3-1.8-3.6-1.1c-1.3,0.6-1.8,2.2-1.2,3.5C153,295.6,154.6,296.1,155.9,295.4z M151.6,303.2
	c0.7,1.2,0.1,2.8-1.2,3.4c-1.3,0.6-2.9,0.2-3.6-1.1c-0.7-1.2-0.1-2.8,1.2-3.4C149.3,301.5,150.9,302,151.6,303.2z M144.2,317.5
	c1.3-0.6,1.8-2.1,1.1-3.4c-0.7-1.2-2.2-1.7-3.5-1.1c-1.3,0.6-1.8,2.1-1.1,3.4C141.4,317.6,142.9,318.1,144.2,317.5z M138.5,324.7
	c0.6,1.2,0.1,2.7-1.1,3.3c-1.3,0.6-2.8,0.1-3.4-1.1c-0.6-1.2-0.1-2.7,1.1-3.3C136.3,323,137.9,323.5,138.5,324.7z M129.9,338.1
	c1.2-0.6,1.7-2.1,1.1-3.2c-0.6-1.2-2.1-1.6-3.4-1c-1.2,0.6-1.7,2.1-1.1,3.2C127.2,338.2,128.7,338.7,129.9,338.1z M123,344.6
	c0.6,1.2,0.1,2.6-1.1,3.2c-1.2,0.6-2.7,0.1-3.3-1c-0.6-1.2-0.1-2.6,1.1-3.2C120.9,343,122.4,343.4,123,344.6z M113.3,357
	c1.2-0.6,1.6-1.9,1-3.1c-0.6-1.1-2-1.6-3.2-1c-1.2,0.6-1.6,1.9-1,3.1C110.7,357.1,112.1,357.5,113.3,357z M105.2,362.7
	c0.6,1.1,0.1,2.4-1,3c-1.1,0.6-2.5,0.1-3.1-0.9c-0.6-1.1-0.1-2.4,1-3C103.2,361.2,104.6,361.6,105.2,362.7z M94.5,373.9
	c1.1-0.5,1.5-1.8,1-2.9c-0.6-1-1.9-1.5-3-0.9c-1.1,0.5-1.5,1.8-1,2.9C92.1,374,93.4,374.4,94.5,373.9z M85.3,378.8
	c0.5,1,0.1,2.2-0.9,2.7c-1,0.5-2.3,0.1-2.8-0.9c-0.5-1-0.1-2.2,0.9-2.7C83.5,377.4,84.8,377.8,85.3,378.8z M73.8,388.6
	c1-0.5,1.4-1.7,0.9-2.6c-0.5-1-1.7-1.3-2.7-0.8c-1,0.5-1.4,1.7-0.9,2.6C71.6,388.7,72.9,389.1,73.8,388.6z M63.7,392.6
	c0.5,0.9,0.1,2-0.9,2.5c-1,0.5-2.1,0.1-2.6-0.8c-0.5-0.9-0.1-2,0.9-2.5C62.1,391.4,63.2,391.7,63.7,392.6z M51.5,401
	c0.9-0.4,1.2-1.5,0.8-2.4c-0.5-0.9-1.5-1.2-2.4-0.8c-0.9,0.4-1.2,1.5-0.8,2.4C49.5,401.1,50.6,401.4,51.5,401z M40.6,404
	c0.4,0.8,0.1,1.8-0.8,2.2c-0.8,0.4-1.9,0.1-2.3-0.7c-0.4-0.8-0.1-1.8,0.8-2.2C39.2,402.9,40.2,403.2,40.6,404z M116.9,45.2
	c0.4,0.7,0.1,1.7-0.7,2c-0.8,0.4-1.7,0.1-2.1-0.7c-0.4-0.7-0.1-1.7,0.7-2C115.5,44.2,116.5,44.5,116.9,45.2z M125.1,56.3
	c0.8-0.4,1.2-1.4,0.7-2.2c-0.4-0.8-1.4-1.1-2.3-0.7c-0.8,0.4-1.2,1.4-0.7,2.2C123.2,56.4,124.2,56.7,125.1,56.3z M134.2,63.5
	c0.4,0.8,0.1,1.9-0.8,2.3c-0.9,0.4-2,0.1-2.4-0.8c-0.4-0.8-0.1-1.9,0.8-2.3C132.7,62.3,133.7,62.6,134.2,63.5z M141.2,75.7
	c0.9-0.5,1.3-1.6,0.8-2.5c-0.5-0.9-1.6-1.2-2.6-0.8c-0.9,0.5-1.3,1.6-0.8,2.5C139.1,75.8,140.3,76.2,141.2,75.7z M149.3,83.4
	c0.5,1,0.1,2.1-0.9,2.6c-1,0.5-2.2,0.1-2.7-0.8c-0.5-1-0.1-2.1,0.9-2.6S148.8,82.5,149.3,83.4z M155.1,96.7c1-0.5,1.5-1.7,0.9-2.8
	c-0.5-1-1.8-1.4-2.9-0.9c-1,0.5-1.5,1.7-0.9,2.8C152.8,96.9,154,97.3,155.1,96.7z M162.1,104.9c0.6,1.1,0.1,2.4-1,2.9
	c-1.1,0.5-2.5,0.1-3-0.9c-0.6-1.1-0.1-2.4,1-2.9C160.2,103.4,161.5,103.8,162.1,104.9z M166.5,119.1c1.2-0.6,1.6-1.9,1-3.1
	c-0.6-1.1-2-1.6-3.2-1c-1.2,0.6-1.6,1.9-1,3.1C163.9,119.2,165.3,119.7,166.5,119.1z M172.3,127.5c0.6,1.2,0.1,2.6-1.1,3.2
	c-1.2,0.6-2.7,0.1-3.3-1c-0.6-1.2-0.1-2.6,1.1-3.2C170.2,125.9,171.7,126.3,172.3,127.5z M175.3,142.5c1.3-0.6,1.8-2.1,1.1-3.3
	c-0.6-1.2-2.2-1.7-3.4-1.1c-1.3,0.6-1.8,2.1-1.1,3.3C172.5,142.6,174.1,143.1,175.3,142.5z M179.9,151.1c0.7,1.2,0.1,2.8-1.2,3.4
	c-1.3,0.6-2.9,0.2-3.6-1.1c-0.7-1.2-0.1-2.8,1.2-3.4S179.2,149.8,179.9,151.1z M181.4,166.6c1.3-0.7,1.9-2.2,1.2-3.5
	c-0.7-1.3-2.3-1.8-3.7-1.1c-1.3,0.7-1.9,2.2-1.2,3.5C178.5,166.8,180.1,167.3,181.4,166.6z M184.7,175.3c0.7,1.3,0.1,3-1.2,3.7
	c-1.4,0.7-3.1,0.2-3.8-1.2c-0.7-1.3-0.1-3,1.2-3.7C182.3,173.4,184,174,184.7,175.3z M184.8,191.3c1.4-0.7,2-2.4,1.3-3.7
	c-0.7-1.4-2.5-1.9-3.9-1.2c-1.4,0.7-2,2.4-1.3,3.8C181.6,191.5,183.4,192,184.8,191.3z M186.7,199.9c0.7,1.4,0.2,3.1-1.3,3.8
	c-1.4,0.7-3.2,0.2-4-1.2c-0.7-1.4-0.2-3.1,1.3-3.8C184.2,198,186,198.5,186.7,199.9z M185.3,216.2c1.5-0.7,2.1-2.5,1.3-3.9
	c-0.8-1.4-2.6-2-4.1-1.3c-1.5,0.7-2.1,2.5-1.3,3.9C182,216.4,183.9,216.9,185.3,216.2z M185.9,224.6c0.8,1.4,0.2,3.2-1.3,3.9
	c-1.5,0.7-3.3,0.2-4.1-1.3c-0.8-1.4-0.2-3.2,1.3-3.9C183.3,222.6,185.1,223.2,185.9,224.6z M183.1,240.9c1.5-0.8,2.1-2.5,1.4-4
	c-0.8-1.5-2.6-2-4.2-1.3c-1.5,0.8-2.1,2.5-1.4,4C179.7,241.1,181.5,241.6,183.1,240.9z M182.2,249.1c0.8,1.5,0.2,3.3-1.4,4
	c-1.5,0.8-3.4,0.2-4.2-1.3c-0.8-1.5-0.2-3.3,1.4-4C179.6,247.1,181.5,247.6,182.2,249.1z M178,265.2c1.5-0.8,2.1-2.6,1.4-4
	c-0.8-1.5-2.7-2.1-4.2-1.3c-1.5,0.8-2.1,2.6-1.4,4C174.6,265.4,176.4,266,178,265.2z M175.8,273.1c0.8,1.5,0.2,3.3-1.4,4
	c-1.5,0.8-3.4,0.2-4.2-1.3c-0.8-1.5-0.2-3.3,1.4-4C173.1,271,175,271.6,175.8,273.1z M170.2,288.8c1.5-0.8,2.1-2.5,1.4-4
	s-2.6-2-4.2-1.3c-1.5,0.8-2.1,2.5-1.4,4C166.8,289,168.6,289.5,170.2,288.8z M166.6,296.3c0.8,1.5,0.2,3.3-1.4,4
	c-1.5,0.8-3.4,0.2-4.2-1.3c-0.8-1.5-0.2-3.3,1.4-4C164,294.2,165.8,294.8,166.6,296.3z M159.7,311.4c1.5-0.7,2.1-2.5,1.3-3.9
	c-0.8-1.4-2.6-2-4.1-1.3c-1.5,0.7-2.1,2.5-1.3,3.9C156.4,311.6,158.2,312.1,159.7,311.4z M154.9,318.4c0.8,1.4,0.2,3.2-1.3,3.9
	c-1.5,0.7-3.3,0.2-4.1-1.3c-0.8-1.4-0.2-3.2,1.3-3.9C152.3,316.4,154.1,316.9,154.9,318.4z M146.7,332.8c1.4-0.7,2-2.4,1.3-3.8
	c-0.7-1.4-2.5-1.9-4-1.2c-1.4,0.7-2,2.4-1.3,3.8C143.5,333,145.3,333.5,146.7,332.8z M140.6,339.2c0.7,1.4,0.2,3-1.3,3.7
	c-1.4,0.7-3.2,0.2-3.9-1.2c-0.7-1.4-0.2-3,1.3-3.7C138.2,337.3,139.9,337.8,140.6,339.2z M131.4,352.7c1.4-0.7,2-2.3,1.3-3.7
	c-0.7-1.3-2.4-1.9-3.8-1.2c-1.4,0.7-2,2.3-1.3,3.7C128.3,352.8,130,353.4,131.4,352.7z M124.1,358.4c0.7,1.3,0.1,2.9-1.2,3.6
	c-1.4,0.7-3,0.2-3.7-1.1c-0.7-1.3-0.1-2.9,1.2-3.6C121.8,356.6,123.4,357.1,124.1,358.4z M113.9,370.8c1.3-0.6,1.8-2.2,1.2-3.5
	c-0.7-1.3-2.3-1.8-3.6-1.1c-1.3,0.6-1.8,2.2-1.2,3.5C111,370.9,112.6,371.4,113.9,370.8z M105.5,375.8c0.6,1.2,0.1,2.7-1.1,3.4
	c-1.3,0.6-2.8,0.1-3.5-1.1c-0.6-1.2-0.1-2.7,1.1-3.4C103.3,374.1,104.9,374.6,105.5,375.8z M94.4,386.9c1.2-0.6,1.7-2,1.1-3.2
	c-0.6-1.2-2.1-1.6-3.3-1c-1.2,0.6-1.7,2-1.1,3.2C91.7,387.1,93.2,387.5,94.4,386.9z M85,391.2c0.6,1.1,0.1,2.5-1,3.1
	c-1.2,0.6-2.6,0.1-3.2-1c-0.6-1.1-0.1-2.5,1-3.1S84.4,390.1,85,391.2z M73.2,401c1.1-0.6,1.6-1.9,1-2.9c-0.6-1.1-1.9-1.5-3.1-0.9
	c-1.1,0.6-1.6,1.9-1,2.9C70.7,401.1,72.1,401.5,73.2,401z M63,404.4c0.5,1,0.1,2.3-0.9,2.8c-1.1,0.5-2.4,0.1-2.9-0.9
	c-0.5-1-0.1-2.3,0.9-2.8C61.1,402.9,62.4,403.3,63,404.4z M50.5,412.7c1-0.5,1.4-1.7,0.9-2.7c-0.5-1-1.7-1.3-2.8-0.8
	c-1,0.5-1.4,1.7-0.9,2.7C48.2,412.8,49.5,413.2,50.5,412.7z M39.5,415.2c0.5,0.9,0.1,2-0.9,2.5c-1,0.5-2.1,0.1-2.6-0.8
	c-0.5-0.9-0.1-2,0.9-2.5C37.9,413.9,39,414.3,39.5,415.2z M40.9,86c0.1,0.3,0.1,0.6-0.2,0.7c-0.3,0.1-0.6,0.1-0.7-0.2
	s-0.1-0.6,0.2-0.7C40.4,85.7,40.7,85.8,40.9,86z M47.6,79.5c0.3-0.2,0.4-0.5,0.2-0.8s-0.5-0.4-0.8-0.2c-0.3,0.2-0.4,0.5-0.2,0.8
	C47,79.6,47.3,79.7,47.6,79.5z M54.9,71.4c0.2,0.3,0.1,0.7-0.2,0.8c-0.3,0.2-0.7,0.1-0.9-0.2s-0.1-0.7,0.2-0.8
	C54.3,71,54.7,71.1,54.9,71.4z M61.6,65c0.4-0.2,0.5-0.6,0.3-1c-0.2-0.3-0.7-0.5-1-0.3c-0.4,0.2-0.5,0.6-0.3,1
	C60.8,65.1,61.3,65.2,61.6,65z M68.9,56.7c0.2,0.4,0.1,0.9-0.3,1.1c-0.4,0.2-0.9,0.1-1.1-0.3c-0.2-0.4-0.1-0.9,0.3-1.1
	C68.2,56.2,68.7,56.3,68.9,56.7z M75.6,50.6c0.5-0.3,0.6-0.8,0.4-1.3c-0.3-0.4-0.9-0.6-1.3-0.4c-0.5,0.3-0.6,0.8-0.4,1.3
	C74.6,50.7,75.2,50.9,75.6,50.6z M82.6,42c0.3,0.5,0.1,1.2-0.4,1.4c-0.5,0.3-1.2,0.1-1.5-0.4c-0.3-0.5-0.1-1.2,0.4-1.4
	C81.6,41.3,82.3,41.5,82.6,42z M89.2,36.3c0.6-0.3,0.8-1.1,0.5-1.7c-0.3-0.6-1.1-0.8-1.7-0.5c-0.6,0.3-0.8,1.1-0.5,1.7
	C87.8,36.5,88.6,36.7,89.2,36.3z M32,80.6c0.2,0.2,0.1,0.6-0.1,0.7c-0.2,0.2-0.6,0.1-0.8-0.1c-0.2-0.2-0.1-0.6,0.1-0.7
	C31.5,80.3,31.9,80.3,32,80.6z M38,73.3c0.3-0.2,0.3-0.5,0.1-0.8s-0.6-0.3-0.8-0.1c-0.3,0.2-0.3,0.5-0.1,0.8
	C37.4,73.4,37.7,73.5,38,73.3z M44.3,64.5c0.2,0.3,0.1,0.7-0.1,0.9c-0.3,0.2-0.7,0.1-0.9-0.1c-0.2-0.3-0.1-0.7,0.1-0.9
	S44.1,64.2,44.3,64.5z M86.4,58c0.2,0.5,0.1,1-0.4,1.3c-0.5,0.2-1.1,0.1-1.3-0.4c-0.2-0.5-0.1-1,0.4-1.3
	C85.6,57.4,86.2,57.6,86.4,58z M78.7,66.2c0.4-0.2,0.6-0.7,0.4-1.1c-0.2-0.4-0.7-0.5-1.1-0.3c-0.4,0.2-0.6,0.7-0.4,1.1
	C77.8,66.2,78.3,66.3,78.7,66.2z M71.7,72.1c0.2,0.4,0,0.8-0.3,1c-0.4,0.2-0.8,0-1-0.3s0-0.8,0.3-1C71.1,71.6,71.5,71.8,71.7,72.1z
	 M64.1,80c0.3-0.2,0.4-0.5,0.3-0.8c-0.2-0.3-0.5-0.4-0.9-0.3c-0.3,0.2-0.4,0.5-0.3,0.8C63.4,80.1,63.8,80.2,64.1,80z M56.8,87
	c0.3-0.1,0.4-0.5,0.3-0.8s-0.5-0.4-0.8-0.3c-0.3,0.1-0.4,0.5-0.3,0.8C56.1,87,56.5,87.2,56.8,87z M49.5,94c0.3-0.1,0.4-0.4,0.2-0.7
	c-0.1-0.3-0.5-0.4-0.7-0.2c-0.3,0.1-0.4,0.4-0.2,0.7C48.9,94,49.2,94.1,49.5,94z M57.8,102.3c0.3-0.1,0.4-0.5,0.2-0.7
	c-0.1-0.3-0.5-0.4-0.8-0.2c-0.3,0.1-0.4,0.5-0.2,0.7C57.2,102.4,57.5,102.5,57.8,102.3z M66.7,110.7c0.1,0.3,0,0.6-0.3,0.8
	c-0.3,0.1-0.7,0-0.8-0.3c-0.1-0.3,0-0.6,0.3-0.8C66.2,110.3,66.6,110.4,66.7,110.7z M74.4,121.2c0.3-0.2,0.4-0.5,0.3-0.8
	c-0.2-0.3-0.5-0.4-0.9-0.3c-0.3,0.2-0.4,0.5-0.3,0.8C73.7,121.3,74.1,121.4,74.4,121.2z M81.7,130.7c0.2,0.3,0,0.7-0.3,0.9
	c-0.3,0.2-0.8,0-0.9-0.3c-0.2-0.3,0-0.7,0.3-0.9C81.1,130.3,81.5,130.4,81.7,130.7z M87.4,142.5c0.4-0.2,0.5-0.6,0.3-1
	c-0.2-0.4-0.6-0.5-1-0.3c-0.4,0.2-0.5,0.6-0.3,1C86.6,142.6,87.1,142.7,87.4,142.5z M92.9,152.9c0.2,0.4,0,0.8-0.3,1
	c-0.4,0.2-0.8,0-1-0.3c-0.2-0.4,0-0.8,0.3-1C92.2,152.4,92.7,152.6,92.9,152.9z M96.7,165.7c0.4-0.2,0.6-0.7,0.4-1.1
	c-0.2-0.4-0.7-0.5-1.1-0.3c-0.4,0.2-0.6,0.7-0.4,1.1C95.8,165.7,96.3,165.9,96.7,165.7z M100.1,176.6c0.2,0.4,0,0.9-0.4,1.1
	c-0.4,0.2-0.9,0-1.1-0.4c-0.2-0.4,0-0.9,0.4-1.1C99.4,176,99.9,176.2,100.1,176.6z M101.7,189.9c0.4-0.2,0.6-0.7,0.4-1.1
	c-0.2-0.4-0.8-0.6-1.2-0.4c-0.4,0.2-0.6,0.7-0.4,1.1C100.7,190,101.3,190.1,101.7,189.9z M103,201.1c0.2,0.4,0,0.9-0.4,1.2
	c-0.5,0.2-1,0.1-1.2-0.4c-0.2-0.4,0-0.9,0.4-1.2C102.3,200.5,102.8,200.7,103,201.1z M102.5,214.7c0.5-0.2,0.6-0.8,0.4-1.2
	c-0.2-0.4-0.8-0.6-1.3-0.4c-0.5,0.2-0.6,0.8-0.4,1.2C101.5,214.8,102,214.9,102.5,214.7z M101.7,225.8c0.2,0.4,0.1,1-0.4,1.2
	c-0.5,0.2-1,0.1-1.3-0.4c-0.2-0.4-0.1-1,0.4-1.2C100.9,225.2,101.5,225.3,101.7,225.8z M99,239.2c0.5-0.2,0.6-0.8,0.4-1.2
	c-0.2-0.4-0.8-0.6-1.3-0.4c-0.5,0.2-0.6,0.8-0.4,1.2C98,239.3,98.5,239.4,99,239.2z M96.1,250c0.2,0.5,0.1,1-0.4,1.3
	c-0.5,0.2-1.1,0.1-1.3-0.4s-0.1-1,0.4-1.3C95.3,249.3,95.8,249.5,96.1,250z M85.9,274.1c0.5-0.2,0.6-0.8,0.4-1.2
	c-0.2-0.4-0.8-0.6-1.3-0.4c-0.5,0.2-0.6,0.8-0.4,1.2C84.9,274.2,85.4,274.3,85.9,274.1z M79.9,283.7c0.2,0.4,0,0.9-0.4,1.2
	c-0.5,0.2-1,0.1-1.2-0.4c-0.2-0.4,0-0.9,0.4-1.2C79.2,283.1,79.7,283.3,79.9,283.7z M72.3,295.1c0.4-0.2,0.6-0.7,0.4-1.1
	c-0.2-0.4-0.8-0.6-1.2-0.4c-0.4,0.2-0.6,0.7-0.4,1.1C71.3,295.2,71.9,295.3,72.3,295.1z M64.5,303.6c0.2,0.4,0,0.9-0.4,1.1
	c-0.4,0.2-0.9,0-1.1-0.4c-0.2-0.4,0-0.9,0.4-1.1C63.8,303.1,64.3,303.2,64.5,303.6z M55.3,313.7c0.4-0.2,0.6-0.7,0.4-1.1
	c-0.2-0.4-0.7-0.5-1.1-0.3c-0.4,0.2-0.6,0.7-0.4,1.1C54.4,313.7,54.9,313.9,55.3,313.7z M45.9,320.9c0.2,0.4,0,0.8-0.3,1
	c-0.4,0.2-0.9,0-1.1-0.3c-0.2-0.4,0-0.8,0.3-1C45.3,320.3,45.7,320.5,45.9,320.9z M35.3,329.3c0.4-0.2,0.5-0.6,0.3-1
	c-0.2-0.4-0.7-0.5-1-0.3c-0.4,0.2-0.5,0.6-0.3,1C34.4,329.3,34.9,329.5,35.3,329.3z M24.6,334.9c0.2,0.3,0,0.7-0.3,0.9
	c-0.4,0.2-0.8,0-1-0.3c-0.2-0.3,0-0.7,0.3-0.9C24,334.4,24.4,334.5,24.6,334.9z M12.8,341.4c0.3-0.2,0.5-0.6,0.3-0.9
	c-0.2-0.3-0.6-0.4-0.9-0.3c-0.3,0.2-0.5,0.6-0.3,0.9C12.1,341.5,12.5,341.6,12.8,341.4z M1.2,345.3c0.2,0.3,0,0.7-0.3,0.8
	c-0.3,0.2-0.7,0-0.8-0.3c-0.2-0.3,0-0.7,0.3-0.8C0.6,344.9,1,345,1.2,345.3z M65.3,94.6c0.2,0.3,0,0.7-0.3,0.8
	c-0.3,0.2-0.7,0-0.8-0.3c-0.2-0.3,0-0.7,0.3-0.8C64.8,94.2,65.2,94.3,65.3,94.6z M73.8,104.5c0.3-0.2,0.5-0.6,0.3-0.9
	c-0.2-0.3-0.6-0.4-0.9-0.3c-0.3,0.2-0.5,0.6-0.3,0.9C73,104.5,73.5,104.7,73.8,104.5z M82.1,113.3c0.2,0.3,0,0.7-0.3,0.9
	c-0.4,0.2-0.8,0-1-0.3c-0.2-0.3,0-0.7,0.3-0.9C81.5,112.8,81.9,112.9,82.1,113.3z M88.9,124.5c0.4-0.2,0.5-0.6,0.3-1s-0.7-0.5-1-0.3
	c-0.4,0.2-0.5,0.6-0.3,1C88.1,124.6,88.5,124.7,88.9,124.5z M95.6,134.3c0.2,0.4,0,0.9-0.4,1.1c-0.4,0.2-0.9,0-1.1-0.3
	c-0.2-0.4,0-0.9,0.4-1.1C94.9,133.7,95.3,133.9,95.6,134.3z M100.6,146.6c0.4-0.2,0.6-0.7,0.4-1.1c-0.2-0.4-0.7-0.6-1.1-0.4
	c-0.4,0.2-0.6,0.7-0.4,1.1C99.6,146.6,100.1,146.8,100.6,146.6z M105.4,157c0.2,0.4,0,0.9-0.4,1.2c-0.5,0.2-1,0.1-1.2-0.4
	c-0.2-0.4,0-0.9,0.4-1.2C104.6,156.5,105.2,156.6,105.4,157z M108.5,170.2c0.5-0.2,0.7-0.8,0.4-1.3c-0.2-0.5-0.8-0.6-1.3-0.4
	c-0.5,0.2-0.7,0.8-0.4,1.3C107.5,170.2,108,170.4,108.5,170.2z M111.4,181c0.2,0.5,0.1,1-0.4,1.3c-0.5,0.2-1.1,0.1-1.3-0.4
	c-0.2-0.5-0.1-1,0.4-1.3C110.6,180.4,111.2,180.6,111.4,181z M112.5,194.6c0.5-0.2,0.7-0.8,0.4-1.3c-0.3-0.5-0.9-0.7-1.4-0.4
	c-0.5,0.2-0.7,0.8-0.4,1.3C111.4,194.7,112,194.9,112.5,194.6z M113.5,205.7c0.3,0.5,0.1,1.1-0.5,1.4c-0.5,0.3-1.1,0.1-1.4-0.4
	c-0.3-0.5-0.1-1.1,0.5-1.4C112.6,205,113.2,205.2,113.5,205.7z M112.5,219.4c0.5-0.3,0.8-0.9,0.5-1.4c-0.3-0.5-0.9-0.7-1.5-0.4
	c-0.5,0.3-0.8,0.9-0.5,1.4C111.3,219.5,112,219.7,112.5,219.4z M111.4,230.3c0.3,0.5,0.1,1.1-0.5,1.4c-0.5,0.3-1.2,0.1-1.5-0.4
	c-0.3-0.5,0-1.1,0.5-1.4C110.5,229.6,111.2,229.8,111.4,230.3z M108.4,243.9c0.5-0.3,0.8-0.9,0.5-1.4c-0.3-0.5-0.9-0.7-1.5-0.4
	c-0.5,0.3-0.8,0.9-0.5,1.4C107.2,243.9,107.9,244.1,108.4,243.9z M105.4,254.4c0.3,0.5,0.1,1.2-0.5,1.4c-0.5,0.3-1.2,0.1-1.5-0.4
	c-0.3-0.5-0.1-1.2,0.5-1.4C104.5,253.6,105.2,253.8,105.4,254.4z M100.5,267.4c0.5-0.3,0.8-0.9,0.5-1.4c-0.3-0.5-0.9-0.7-1.5-0.4
	c-0.5,0.3-0.8,0.9-0.5,1.4C99.2,267.5,99.9,267.7,100.5,267.4z M92.3,261.8c0.3,0.5,0.1,1.2-0.5,1.4c-0.5,0.3-1.2,0.1-1.5-0.4
	c-0.3-0.5-0.1-1.2,0.5-1.4C91.3,261.1,92,261.3,92.3,261.8z M95,278.7c0.5-0.3,0.8-0.9,0.5-1.4c-0.3-0.5-0.9-0.7-1.5-0.4
	c-0.5,0.3-0.8,0.9-0.5,1.4C93.9,278.7,94.5,278.9,95,278.7z M89.2,288.1c0.3,0.5,0.1,1.1-0.5,1.4c-0.5,0.3-1.1,0.1-1.4-0.4
	c-0.3-0.5-0.1-1.1,0.5-1.4C88.3,287.4,88.9,287.6,89.2,288.1z M81.6,299.8c0.5-0.2,0.7-0.8,0.4-1.3c-0.3-0.5-0.9-0.7-1.4-0.4
	c-0.5,0.2-0.7,0.8-0.4,1.3C80.5,299.8,81.1,300,81.6,299.8z M74,308.2c0.2,0.5,0.1,1-0.4,1.3c-0.5,0.2-1.1,0.1-1.3-0.4
	c-0.2-0.5-0.1-1,0.4-1.3C73.2,307.5,73.8,307.7,74,308.2z M64.9,318.6c0.5-0.2,0.7-0.8,0.4-1.3c-0.2-0.5-0.8-0.6-1.3-0.4
	c-0.5,0.2-0.7,0.8-0.4,1.3C63.8,318.6,64.4,318.8,64.9,318.6z M55.8,325.8c0.2,0.4,0,0.9-0.4,1.2c-0.5,0.2-1,0.1-1.2-0.4
	c-0.2-0.4,0-0.9,0.4-1.2C55,325.2,55.5,325.4,55.8,325.8z M45.3,334.6c0.4-0.2,0.6-0.7,0.4-1.1c-0.2-0.4-0.8-0.6-1.2-0.4
	c-0.4,0.2-0.6,0.7-0.4,1.1C44.3,334.7,44.8,334.8,45.3,334.6z M34.9,340.4c0.2,0.4,0,0.9-0.4,1.1c-0.4,0.2-0.9,0-1.1-0.3
	c-0.2-0.4,0-0.9,0.4-1.1C34.2,339.9,34.7,340.1,34.9,340.4z M23.3,347.6c0.4-0.2,0.5-0.7,0.3-1c-0.2-0.4-0.7-0.5-1.1-0.3
	c-0.4,0.2-0.5,0.7-0.3,1C22.4,347.6,22.9,347.8,23.3,347.6z M11.9,351.8c0.2,0.4,0,0.8-0.3,1c-0.4,0.2-0.8,0-1-0.3
	c-0.2-0.4,0-0.8,0.3-1C11.3,351.3,11.7,351.4,11.9,351.8z M72.7,87.5c0.2,0.3,0,0.7-0.3,0.9c-0.4,0.2-0.8,0-1-0.3s0-0.7,0.3-0.9
	C72.1,87.1,72.5,87.2,72.7,87.5z M81.1,97.6c0.4-0.2,0.5-0.6,0.3-1c-0.2-0.4-0.7-0.5-1-0.3c-0.4,0.2-0.5,0.6-0.3,1
	C80.3,97.6,80.7,97.7,81.1,97.6z M89.5,106.2c0.2,0.4,0,0.9-0.4,1.1c-0.4,0.2-0.9,0-1.1-0.3s0-0.9,0.4-1.1
	C88.8,105.6,89.3,105.8,89.5,106.2z M96.4,117.5c0.4-0.2,0.6-0.7,0.4-1.1c-0.2-0.4-0.8-0.6-1.2-0.4c-0.4,0.2-0.6,0.7-0.4,1.1
	C95.4,117.5,96,117.7,96.4,117.5z M103.3,127c0.2,0.4,0.1,1-0.4,1.2c-0.5,0.2-1,0.1-1.3-0.4c-0.2-0.4-0.1-1,0.4-1.2
	C102.5,126.3,103.1,126.5,103.3,127z M108.5,139.3c0.5-0.2,0.7-0.8,0.4-1.3c-0.2-0.5-0.8-0.6-1.3-0.4s-0.7,0.8-0.4,1.3
	C107.4,139.4,108,139.6,108.5,139.3z M113.7,149.5c0.3,0.5,0.1,1.1-0.4,1.3c-0.5,0.2-1.1,0.1-1.4-0.4c-0.3-0.5-0.1-1.1,0.4-1.3
	C112.8,148.9,113.4,149.1,113.7,149.5z M117.1,162.7c0.5-0.3,0.8-0.9,0.5-1.4c-0.3-0.5-0.9-0.7-1.5-0.4c-0.5,0.3-0.8,0.9-0.5,1.4
	C115.9,162.8,116.6,162.9,117.1,162.7z M120.6,173.3c0.3,0.5,0.1,1.2-0.5,1.5c-0.6,0.3-1.2,0.1-1.5-0.5c-0.3-0.5-0.1-1.2,0.5-1.5
	C119.6,172.6,120.3,172.8,120.6,173.3z M122.1,187c0.6-0.3,0.8-1,0.5-1.5s-1-0.8-1.6-0.5c-0.6,0.3-0.8,1-0.5,1.5
	C120.8,187.1,121.5,187.3,122.1,187z M123.7,197.8c0.3,0.6,0.1,1.3-0.5,1.6s-1.3,0.1-1.6-0.5s-0.1-1.3,0.5-1.6
	S123.4,197.2,123.7,197.8z M123.2,211.8c0.6-0.3,0.9-1,0.5-1.6c-0.3-0.6-1.1-0.8-1.7-0.5c-0.6,0.3-0.9,1-0.5,1.6
	C121.9,211.9,122.6,212.1,123.2,211.8z M123,222.5c0.3,0.6,0.1,1.3-0.6,1.7c-0.6,0.3-1.4,0.1-1.7-0.5c-0.3-0.6-0.1-1.3,0.6-1.7
	C121.9,221.7,122.7,221.9,123,222.5z M120.6,236.4c0.6-0.3,0.9-1.1,0.6-1.7c-0.3-0.6-1.1-0.8-1.7-0.5c-0.6,0.3-0.9,1.1-0.6,1.7
	C119.2,236.5,120,236.7,120.6,236.4z M118.5,246.9c0.3,0.6,0.1,1.3-0.6,1.7c-0.6,0.3-1.4,0.1-1.7-0.5c-0.3-0.6-0.1-1.3,0.6-1.7
	C117.4,246.1,118.1,246.3,118.5,246.9z M114.2,260.4c0.6-0.3,0.9-1.1,0.6-1.7c-0.3-0.6-1.1-0.8-1.7-0.5c-0.6,0.3-0.9,1.1-0.6,1.7
	C112.8,260.5,113.6,260.7,114.2,260.4z M110.3,270.4c0.3,0.6,0.1,1.3-0.6,1.7c-0.6,0.3-1.4,0.1-1.7-0.5c-0.3-0.6-0.1-1.3,0.6-1.7
	C109.2,269.5,109.9,269.8,110.3,270.4z M104.3,283.3c0.6-0.3,0.8-1,0.5-1.6c-0.3-0.6-1.1-0.8-1.7-0.5c-0.6,0.3-0.9,1-0.5,1.6
	C102.9,283.3,103.6,283.6,104.3,283.3z M98.5,292.5c0.3,0.6,0.1,1.3-0.5,1.6s-1.4,0.1-1.7-0.5c-0.3-0.6-0.1-1.3,0.5-1.6
	C97.5,291.6,98.2,291.9,98.5,292.5z M90.9,304.4c0.6-0.3,0.8-1,0.5-1.6c-0.3-0.6-1-0.8-1.6-0.5c-0.6,0.3-0.8,1-0.5,1.6
	C89.6,304.5,90.3,304.7,90.9,304.4z M83.5,312.7c0.3,0.6,0.1,1.2-0.5,1.5c-0.6,0.3-1.3,0.1-1.6-0.5c-0.3-0.6-0.1-1.2,0.5-1.5
	C82.5,311.9,83.2,312.1,83.5,312.7z M74.4,323.5c0.6-0.3,0.8-0.9,0.5-1.5s-1-0.8-1.5-0.5c-0.6,0.3-0.8,0.9-0.5,1.5
	C73.2,323.5,73.8,323.7,74.4,323.5z M65.6,330.6c0.3,0.5,0.1,1.1-0.5,1.4c-0.5,0.3-1.2,0.1-1.5-0.4c-0.3-0.5-0.1-1.1,0.5-1.4
	C64.7,329.9,65.3,330.1,65.6,330.6z M55.2,339.9c0.5-0.2,0.7-0.8,0.4-1.3s-0.9-0.7-1.4-0.4c-0.5,0.2-0.7,0.8-0.4,1.3
	C54.1,340,54.7,340.1,55.2,339.9z M45.1,345.8c0.2,0.5,0.1,1-0.4,1.3c-0.5,0.2-1.1,0.1-1.3-0.4c-0.2-0.5-0.1-1,0.4-1.3
	C44.3,345.2,44.9,345.4,45.1,345.8z M33.6,353.5c0.5-0.2,0.6-0.7,0.4-1.2c-0.2-0.4-0.8-0.6-1.2-0.4c-0.5,0.2-0.6,0.7-0.4,1.2
	C32.6,353.5,33.2,353.7,33.6,353.5z M22.5,358c0.2,0.4,0,0.9-0.4,1.1c-0.4,0.2-0.9,0-1.1-0.4c-0.2-0.4,0-0.9,0.4-1.1
	C21.8,357.5,22.3,357.6,22.5,358z M10.3,363.9c0.4-0.2,0.6-0.7,0.4-1.1c-0.2-0.4-0.7-0.5-1.1-0.3c-0.4,0.2-0.6,0.7-0.4,1.1
	C9.4,364,9.9,364.1,10.3,363.9z M79.6,81.6c0.4-0.2,0.5-0.7,0.3-1c-0.2-0.4-0.7-0.5-1.1-0.3c-0.4,0.2-0.5,0.7-0.3,1
	C78.8,81.6,79.2,81.7,79.6,81.6z M88.8,89.5c0.2,0.4,0,0.9-0.4,1.1c-0.4,0.2-0.9,0-1.1-0.4c-0.2-0.4,0-0.9,0.4-1.1
	C88,89,88.6,89.1,88.8,89.5z M96.5,100.3c0.5-0.2,0.6-0.7,0.4-1.2c-0.2-0.4-0.8-0.6-1.2-0.4c-0.5,0.2-0.6,0.7-0.4,1.2
	C95.5,100.3,96,100.5,96.5,100.3z M104.3,109.2c0.2,0.5,0.1,1-0.4,1.3c-0.5,0.2-1.1,0.1-1.3-0.4c-0.2-0.5-0.1-1,0.4-1.3
	C103.5,108.5,104.1,108.7,104.3,109.2z M110.5,121.1c0.5-0.3,0.7-0.9,0.5-1.4c-0.3-0.5-0.9-0.7-1.4-0.4c-0.5,0.3-0.7,0.9-0.5,1.4
	C109.4,121.1,110,121.3,110.5,121.1z M116.8,130.7c0.3,0.5,0.1,1.2-0.5,1.4c-0.5,0.3-1.2,0.1-1.5-0.4c-0.3-0.5-0.1-1.2,0.5-1.4
	C115.9,130,116.6,130.2,116.8,130.7z M121.4,143.6c0.6-0.3,0.8-1,0.5-1.5c-0.3-0.6-1-0.8-1.6-0.5c-0.6,0.3-0.8,1-0.5,1.5
	C120.1,143.6,120.8,143.8,121.4,143.6z M126.1,153.7c0.3,0.6,0.1,1.3-0.5,1.6c-0.6,0.3-1.4,0.1-1.7-0.5c-0.3-0.6-0.1-1.3,0.5-1.6
	C125.1,152.9,125.8,153.1,126.1,153.7z M128.9,167.3c0.6-0.3,0.9-1.1,0.6-1.7c-0.3-0.6-1.1-0.8-1.7-0.5c-0.6,0.3-0.9,1.1-0.6,1.7
	C127.5,167.3,128.3,167.6,128.9,167.3z M132,177.7c0.3,0.6,0.1,1.4-0.6,1.7s-1.5,0.1-1.8-0.6c-0.3-0.6-0.1-1.4,0.6-1.7
	S131.6,177.1,132,177.7z M132.9,191.8c0.7-0.3,1-1.1,0.6-1.8c-0.3-0.7-1.2-0.9-1.9-0.6c-0.7,0.3-1,1.1-0.6,1.8
	C131.4,191.9,132.3,192.1,132.9,191.8z M134.2,202.3c0.4,0.7,0.1,1.5-0.6,1.8c-0.7,0.3-1.5,0.1-1.9-0.6c-0.4-0.7-0.1-1.5,0.6-1.8
	C133,201.4,133.9,201.7,134.2,202.3z M133.4,216.6c0.7-0.3,1-1.2,0.6-1.9c-0.4-0.7-1.2-1-1.9-0.6c-0.7,0.3-1,1.2-0.6,1.9
	C131.8,216.6,132.7,216.9,133.4,216.6z M132.9,227c0.4,0.7,0.1,1.6-0.7,1.9c-0.7,0.4-1.6,0.1-2-0.6c-0.4-0.7-0.1-1.6,0.7-1.9
	C131.6,226,132.5,226.3,132.9,227z M130.2,241.2c0.7-0.4,1-1.2,0.7-1.9c-0.4-0.7-1.3-1-2-0.6c-0.7,0.4-1,1.2-0.7,1.9
	C128.6,241.2,129.5,241.5,130.2,241.2z M128,251.3c0.4,0.7,0.1,1.6-0.7,1.9c-0.7,0.4-1.6,0.1-2-0.6c-0.4-0.7-0.1-1.6,0.7-1.9
	C126.7,250.3,127.6,250.6,128,251.3z M123.5,265.1c0.7-0.4,1-1.2,0.7-1.9c-0.4-0.7-1.3-1-2-0.6c-0.7,0.4-1,1.2-0.7,1.9
	C121.9,265.2,122.8,265.5,123.5,265.1z M119.6,274.7c0.4,0.7,0.1,1.6-0.7,1.9c-0.7,0.4-1.6,0.1-2-0.6c-0.4-0.7-0.1-1.6,0.7-1.9
	C118.3,273.8,119.2,274,119.6,274.7z M113.5,287.9c0.7-0.4,1-1.2,0.7-1.9c-0.4-0.7-1.3-1-2-0.6c-0.7,0.4-1,1.2-0.7,1.9
	C111.8,288,112.7,288.2,113.5,287.9z M107.8,296.8c0.4,0.7,0.1,1.5-0.6,1.9c-0.7,0.4-1.6,0.1-1.9-0.6c-0.4-0.7-0.1-1.5,0.6-1.9
	C106.6,295.9,107.5,296.2,107.8,296.8z M100.2,309.1c0.7-0.3,1-1.2,0.6-1.8c-0.4-0.7-1.2-0.9-1.9-0.6c-0.7,0.3-1,1.2-0.6,1.8
	C98.6,309.2,99.5,309.4,100.2,309.1z M93,317.2c0.3,0.6,0.1,1.4-0.6,1.8c-0.7,0.3-1.5,0.1-1.8-0.6c-0.3-0.6-0.1-1.4,0.6-1.8
	C91.8,316.3,92.6,316.5,93,317.2z M83.9,328.3c0.6-0.3,0.9-1.1,0.6-1.7c-0.3-0.6-1.1-0.9-1.8-0.5c-0.6,0.3-0.9,1.1-0.6,1.7
	C82.5,328.3,83.3,328.6,83.9,328.3z M75.4,335.4c0.3,0.6,0.1,1.3-0.6,1.7c-0.6,0.3-1.4,0.1-1.7-0.5c-0.3-0.6-0.1-1.3,0.6-1.7
	C74.3,334.5,75.1,334.8,75.4,335.4z M65.1,345.2c0.6-0.3,0.8-1,0.5-1.6c-0.3-0.6-1-0.8-1.6-0.5c-0.6,0.3-0.8,1-0.5,1.6
	C63.7,345.2,64.5,345.4,65.1,345.2z M55.3,351.1c0.3,0.6,0.1,1.2-0.5,1.5s-1.3,0.1-1.6-0.5c-0.3-0.6-0.1-1.2,0.5-1.5
	C54.3,350.3,55,350.5,55.3,351.1z M43.9,359.3c0.5-0.3,0.8-0.9,0.5-1.4c-0.3-0.5-0.9-0.7-1.5-0.4c-0.5,0.3-0.8,0.9-0.5,1.4
	C42.7,359.3,43.4,359.5,43.9,359.3z M33.1,364c0.3,0.5,0.1,1.1-0.4,1.3c-0.5,0.2-1.1,0.1-1.4-0.4c-0.3-0.5-0.1-1.1,0.4-1.3
	C32.2,363.3,32.9,363.5,33.1,364z M21,370.5c0.5-0.2,0.7-0.8,0.4-1.3c-0.2-0.5-0.8-0.6-1.3-0.4c-0.5,0.2-0.7,0.8-0.4,1.3
	C19.9,370.6,20.5,370.8,21,370.5z M14.2,372.6c0.2,0.5,0.1,1-0.4,1.3c-0.5,0.2-1.1,0.1-1.3-0.4c-0.2-0.5-0.1-1,0.4-1.3
	C13.4,372,14,372.2,14.2,372.6z M87.3,73.5c0.2,0.4,0,0.9-0.4,1.2c-0.5,0.2-1,0.1-1.2-0.4c-0.2-0.4,0-0.9,0.4-1.2
	C86.5,72.9,87.1,73.1,87.3,73.5z M95.7,83.7c0.5-0.2,0.7-0.8,0.4-1.3c-0.2-0.5-0.8-0.6-1.3-0.4c-0.5,0.2-0.7,0.8-0.4,1.3
	C94.7,83.8,95.2,84,95.7,83.7z M104.3,92c0.3,0.5,0.1,1.1-0.5,1.4c-0.5,0.3-1.1,0.1-1.4-0.4c-0.3-0.5-0.1-1.1,0.5-1.4
	S104.1,91.5,104.3,92z M111.3,103.4c0.5-0.3,0.8-0.9,0.5-1.4c-0.3-0.5-0.9-0.7-1.5-0.4c-0.5,0.3-0.8,0.9-0.5,1.4
	C110.1,103.5,110.8,103.7,111.3,103.4z M118.6,112.5c0.3,0.6,0.1,1.3-0.5,1.5c-0.6,0.3-1.3,0.1-1.6-0.5c-0.3-0.6-0.1-1.3,0.5-1.5
	C117.6,111.7,118.3,111.9,118.6,112.5z M124.2,125c0.6-0.3,0.9-1.1,0.6-1.7c-0.3-0.6-1.1-0.8-1.7-0.5c-0.6,0.3-0.9,1.1-0.6,1.7
	C122.8,125.1,123.6,125.3,124.2,125z M130,134.6c0.3,0.6,0.1,1.4-0.6,1.7c-0.7,0.3-1.5,0.1-1.8-0.6s-0.1-1.4,0.6-1.7
	C128.9,133.7,129.7,133.9,130,134.6z M133.9,148c0.7-0.3,1-1.2,0.6-1.8c-0.4-0.7-1.2-0.9-1.9-0.6c-0.7,0.3-1,1.2-0.6,1.8
	C132.4,148,133.2,148.3,133.9,148z M138.3,157.9c0.4,0.7,0.1,1.6-0.7,1.9c-0.7,0.4-1.6,0.1-2-0.6c-0.4-0.7-0.1-1.6,0.7-1.9
	C137,157,137.9,157.3,138.3,157.9z M140.5,171.9c0.8-0.4,1.1-1.3,0.7-2c-0.4-0.7-1.3-1-2.1-0.6c-0.8,0.4-1.1,1.3-0.7,2
	C138.8,172,139.7,172.3,140.5,171.9z M143.2,182.2c0.4,0.7,0.1,1.7-0.7,2c-0.8,0.4-1.7,0.1-2.1-0.7c-0.4-0.7-0.1-1.7,0.7-2
	C141.8,181.1,142.8,181.4,143.2,182.2z M143.6,196.6c0.8-0.4,1.1-1.3,0.7-2.1c-0.4-0.8-1.4-1.1-2.2-0.7c-0.8,0.4-1.1,1.3-0.7,2.1
	C141.9,196.7,142.8,197,143.6,196.6z M144.7,206.8c0.4,0.8,0.1,1.8-0.7,2.2c-0.8,0.4-1.8,0.1-2.3-0.7c-0.4-0.8-0.1-1.8,0.7-2.2
	C143.3,205.7,144.3,206,144.7,206.8z M143.4,221.4c0.8-0.4,1.2-1.4,0.8-2.2c-0.4-0.8-1.4-1.1-2.3-0.7c-0.8,0.4-1.2,1.4-0.8,2.2
	C141.6,221.5,142.6,221.8,143.4,221.4z M142.8,231.5c0.4,0.8,0.1,1.8-0.8,2.2c-0.8,0.4-1.9,0.1-2.3-0.7c-0.4-0.8-0.1-1.8,0.8-2.2
	C141.3,230.4,142.4,230.7,142.8,231.5z M139.8,245.9c0.9-0.4,1.2-1.4,0.8-2.2c-0.4-0.8-1.5-1.1-2.3-0.7c-0.9,0.4-1.2,1.4-0.8,2.2
	C137.9,246,138.9,246.3,139.8,245.9z M137.5,255.7c0.4,0.8,0.1,1.8-0.8,2.2c-0.9,0.4-1.9,0.1-2.3-0.7c-0.4-0.8-0.1-1.8,0.8-2.2
	C136,254.6,137.1,254.9,137.5,255.7z M132.8,269.8c0.9-0.4,1.2-1.4,0.8-2.2c-0.4-0.8-1.5-1.1-2.3-0.7c-0.9,0.4-1.2,1.4-0.8,2.2
	C130.9,269.9,132,270.2,132.8,269.8z M128.9,279.1c0.4,0.8,0.1,1.8-0.8,2.2c-0.9,0.4-1.9,0.1-2.3-0.7c-0.4-0.8-0.1-1.8,0.8-2.2
	C127.4,277.9,128.5,278.2,128.9,279.1z M122.7,292.5c0.8-0.4,1.2-1.4,0.8-2.2c-0.4-0.8-1.4-1.1-2.3-0.7c-0.8,0.4-1.2,1.4-0.8,2.2
	C120.8,292.6,121.8,292.9,122.7,292.5z M117.2,301.2c0.4,0.8,0.1,1.8-0.7,2.2c-0.8,0.4-1.8,0.1-2.3-0.7c-0.4-0.8-0.1-1.8,0.7-2.2
	C115.7,300.1,116.8,300.4,117.2,301.2z M109.4,313.7c0.8-0.4,1.1-1.3,0.7-2.1c-0.4-0.8-1.4-1.1-2.2-0.7c-0.8,0.4-1.1,1.3-0.7,2.1
	C107.7,313.8,108.6,314.1,109.4,313.7z M102.5,321.6c0.4,0.8,0.1,1.7-0.7,2.1c-0.8,0.4-1.7,0.1-2.1-0.7c-0.4-0.8-0.1-1.7,0.7-2.1
	C101.1,320.6,102.1,320.9,102.5,321.6z M93.4,333.1c0.8-0.4,1.1-1.3,0.7-2c-0.4-0.7-1.3-1-2.1-0.6c-0.8,0.4-1.1,1.3-0.7,2
	C91.7,333.2,92.7,333.5,93.4,333.1z M85.1,340.1c0.4,0.7,0.1,1.6-0.7,1.9c-0.7,0.4-1.6,0.1-2-0.6c-0.4-0.7-0.1-1.6,0.7-1.9
	C83.9,339.1,84.7,339.4,85.1,340.1z M74.9,350.3c0.7-0.3,1-1.2,0.6-1.8c-0.4-0.7-1.2-0.9-1.9-0.6c-0.7,0.3-1,1.2-0.6,1.8
	C73.3,350.4,74.2,350.6,74.9,350.3z M65.4,356.2c0.3,0.6,0.1,1.4-0.6,1.8c-0.7,0.3-1.5,0.1-1.8-0.6c-0.3-0.6-0.1-1.4,0.6-1.8
	C64.2,355.3,65,355.6,65.4,356.2z M54.1,365c0.6-0.3,0.9-1.1,0.6-1.7c-0.3-0.6-1.1-0.9-1.8-0.5c-0.6,0.3-0.9,1.1-0.6,1.7
	C52.7,365.1,53.5,365.3,54.1,365z M43.6,369.7c0.3,0.6,0.1,1.3-0.5,1.6c-0.6,0.3-1.3,0.1-1.6-0.5c-0.3-0.6-0.1-1.3,0.5-1.6
	C42.6,368.9,43.3,369.1,43.6,369.7z M31.6,376.9c0.6-0.3,0.8-0.9,0.5-1.5c-0.3-0.5-1-0.8-1.5-0.5c-0.6,0.3-0.8,0.9-0.5,1.5
	C30.3,377,31,377.2,31.6,376.9z M20.2,380.3c0.3,0.5,0.1,1.1-0.5,1.4c-0.5,0.3-1.2,0.1-1.5-0.4c-0.3-0.5-0.1-1.1,0.5-1.4
	C19.3,379.6,19.9,379.8,20.2,380.3z M28.5,410.6c0.5-0.3,0.8-0.9,0.5-1.4c-0.3-0.5-0.9-0.7-1.5-0.4c-0.5,0.3-0.8,0.9-0.5,1.4
	C27.3,410.7,27.9,410.9,28.5,410.6z M94.2,67.8c0.5-0.2,0.7-0.8,0.4-1.3c-0.3-0.5-0.9-0.7-1.4-0.4c-0.5,0.2-0.7,0.8-0.4,1.3
	C93.1,67.8,93.7,68,94.2,67.8z M103.5,75.4c0.3,0.5,0.1,1.2-0.5,1.4c-0.5,0.3-1.2,0.1-1.5-0.4c-0.3-0.5-0.1-1.2,0.5-1.4
	C102.6,74.7,103.2,74.9,103.5,75.4z M111.2,86.4c0.6-0.3,0.8-1,0.5-1.5c-0.3-0.6-1-0.8-1.6-0.5c-0.6,0.3-0.8,1-0.5,1.5
	C109.9,86.5,110.7,86.7,111.2,86.4z M119.4,94.8c0.3,0.6,0.1,1.3-0.6,1.7c-0.6,0.3-1.4,0.1-1.7-0.5c-0.3-0.6-0.1-1.3,0.6-1.7
	C118.3,94,119.1,94.2,119.4,94.8z M125.7,107c0.7-0.3,0.9-1.1,0.6-1.8c-0.3-0.6-1.2-0.9-1.8-0.6s-0.9,1.1-0.6,1.8
	C124.2,107,125.1,107.3,125.7,107z M132.6,116c0.4,0.7,0.1,1.5-0.6,1.9c-0.7,0.3-1.6,0.1-1.9-0.6c-0.4-0.7-0.1-1.5,0.6-1.9
	C131.3,115,132.2,115.3,132.6,116z M137.4,129.1c0.7-0.4,1-1.2,0.7-1.9c-0.4-0.7-1.3-1-2-0.6c-0.7,0.4-1,1.2-0.7,1.9
	C135.8,129.2,136.7,129.4,137.4,129.1z M142.9,138.6c0.4,0.8,0.1,1.7-0.7,2.1c-0.8,0.4-1.7,0.1-2.1-0.7c-0.4-0.8-0.1-1.7,0.7-2.1
	C141.5,137.5,142.5,137.8,142.9,138.6z M146.2,152.5c0.8-0.4,1.2-1.4,0.7-2.2c-0.4-0.8-1.4-1.1-2.3-0.7c-0.8,0.4-1.2,1.4-0.7,2.2
	C144.3,152.6,145.3,152.9,146.2,152.5z"/>
</svg>
