<?xml version="1.0" encoding="utf-8"?>
<!-- Generator: Adobe Illustrator 24.3.0, SVG Export Plug-In . SVG Version: 6.00 Build 0)  -->
<svg version="1.1" id="Слой_1" xmlns="http://www.w3.org/2000/svg" xmlns:xlink="http://www.w3.org/1999/xlink" x="0px" y="0px"
	 viewBox="0 0 456.7 458" style="enable-background:new 0 0 456.7 458;" xml:space="preserve">
<style type="text/css">
	.st0{fill:none;stroke:url(#SVGID_1_);}
	.st1{clip-path:url(#SVGID_3_);}
	.st2{fill:#868BA3;}
	.st3{clip-path:url(#SVGID_5_);}
	.st4{clip-path:url(#SVGID_7_);}
</style>
<linearGradient id="SVGID_1_" gradientUnits="userSpaceOnUse" x1="-198.2248" y1="30.2296" x2="-198.2248" y2="-413.4424" gradientTransform="matrix(0.6181 -0.7861 -0.7861 -0.6181 200.3914 -44.5346)">
	<stop  offset="0" style="stop-color:#FFFFFF"/>
	<stop  offset="0.9986" style="stop-color:#C4CCE2"/>
</linearGradient>
<circle class="st0" cx="228.5" cy="229.7" r="221.3"/>
<g>
	<defs>
		<rect id="SVGID_2_" x="221" y="443" width="15" height="15"/>
	</defs>
	<clipPath id="SVGID_3_">
		<use xlink:href="#SVGID_2_"  style="overflow:visible;"/>
	</clipPath>
	<g class="st1">
		<path class="st2" d="M232.8,450.5c0,0.3-0.1,0.5-0.3,0.7l-6.4,6.5c-0.4,0.4-1.1,0.4-1.5,0c-0.4-0.4-0.4-1.1,0-1.5l5.7-5.7
			l-5.7-5.7c-0.4-0.4-0.4-1.1,0-1.5c0.4-0.4,1.1-0.4,1.5,0l6.4,6.5C232.7,450,232.8,450.2,232.8,450.5z"/>
	</g>
</g>
<g>
	<defs>
		<rect id="SVGID_4_" x="222" width="15" height="15"/>
	</defs>
	<clipPath id="SVGID_5_">
		<use xlink:href="#SVGID_4_"  style="overflow:visible;"/>
	</clipPath>
	<g class="st3">
		<path class="st2" d="M225.2,7.5c0-0.3,0.1-0.5,0.3-0.7l6.4-6.4c0.4-0.4,1.1-0.4,1.5,0c0.4,0.4,0.4,1.1,0,1.5l-5.7,5.7l5.7,5.7
			c0.4,0.4,0.4,1.1,0,1.5c-0.4,0.4-1.1,0.4-1.5,0l-6.4-6.4C225.3,8,225.2,7.8,225.2,7.5z"/>
	</g>
</g>
<path class="st2" d="M7.3,232.6c-0.3,0-0.5-0.1-0.7-0.3l-6.2-6.5c-0.4-0.4-0.4-1.1,0-1.5c0.4-0.4,1-0.4,1.4,0l5.5,5.7l5.5-5.7
	c0.4-0.4,1-0.4,1.4,0c0.4,0.4,0.4,1.1,0,1.5L8,232.2C7.8,232.4,7.5,232.6,7.3,232.6z"/>
<g>
	<defs>
		<rect id="SVGID_6_" x="442" y="221" width="15" height="15"/>
	</defs>
	<clipPath id="SVGID_7_">
		<use xlink:href="#SVGID_6_"  style="overflow:visible;"/>
	</clipPath>
	<g class="st4">
		<path class="st2" d="M449.8,224.4c0.3,0,0.5,0.1,0.7,0.3l6.2,6.4c0.4,0.4,0.4,1.1,0,1.5c-0.4,0.4-1,0.4-1.4,0l-5.5-5.7l-5.5,5.7
			c-0.4,0.4-1,0.4-1.4,0c-0.4-0.4-0.4-1.1,0-1.5l6.2-6.4C449.2,224.6,449.5,224.4,449.8,224.4z"/>
	</g>
</g>
</svg>
